<svg xmlns="http://www.w3.org/2000/svg" xmlns:xlink="http://www.w3.org/1999/xlink" width="42.841" height="42.841" viewBox="0 0 42.841 42.841"><defs><style>.a{fill:url(#a);}</style><linearGradient id="a" x1="0.5" x2="0.5" y2="1" gradientUnits="objectBoundingBox"><stop offset="0" stop-color="#8f938f"/><stop offset="1" stop-color="#b3b6b3"/></linearGradient></defs><path class="a" d="M48.446,49.715H44.919a.669.669,0,0,0-.408.141,9.15,9.15,0,0,1-5.516,1.868H25.446a1.064,1.064,0,0,1-1.1-.9.991.991,0,0,1,.254-.783,1.011,1.011,0,0,1,.75-.328,1468.217,1468.217,0,0,1,.335,0h6.694a.669.669,0,1,0,0-1.339H25.687a.669.669,0,0,0-.167,0,.669.669,0,0,0-.167,0H23.438a1.064,1.064,0,0,1-1.1-.9.991.991,0,0,1,.254-.783,1.011,1.011,0,0,1,.75-.328h8.367a.669.669,0,0,0,0-1.339H21.43a1.064,1.064,0,0,1-1.1-.9.991.991,0,0,1,.254-.783,1.011,1.011,0,0,1,.75-.328h9.706a.669.669,0,0,0,0-1.339h-7.7a1.011,1.011,0,0,1-.743-.328.991.991,0,0,1-.261-.783,1.064,1.064,0,0,1,1.1-.9h13.8a.686.686,0,0,0,.5-1.145l-3.293-3.273a2.008,2.008,0,0,1,0-2.838.669.669,0,0,1,.957,0L39.952,36.8a.67.67,0,0,0,.248.154l.616.208A5.469,5.469,0,0,1,44.4,41.18a.669.669,0,0,0,.669.522h3.374a.669.669,0,1,0,0-1.339H45.568a6.808,6.808,0,0,0-4.324-4.445l-.475-.161-4.431-4.271a2.055,2.055,0,0,0-2.845,0,3.347,3.347,0,0,0,0,4.733l2.135,2.115H23.438A2.416,2.416,0,0,0,21,40.437a2.323,2.323,0,0,0,.228,1.245,2.336,2.336,0,0,0-2.236,2.584,2.416,2.416,0,0,0,2.236,2.1A2.349,2.349,0,0,0,21,47.613a2.416,2.416,0,0,0,2.236,2.1,2.35,2.35,0,0,0-.228,1.245,2.416,2.416,0,0,0,2.437,2.1H38.995a10.489,10.489,0,0,0,6.145-2.008h3.307a.669.669,0,1,0,0-1.339Z" transform="translate(-6.275 -10.221)"/><path class="a" d="M16.226,14.057a2.008,2.008,0,0,1,1.847,2.008v.669a.669.669,0,0,0,.669.669h4.686a.669.669,0,0,0,.669-.669V15.57a8.213,8.213,0,0,0-7.866-8.207,5.442,5.442,0,0,0-1.505-1.285V3.347a.669.669,0,0,0-.669-.669H12.718V1.339h4.016a.669.669,0,0,0,0-1.339H7.363a.669.669,0,1,0,0,1.339H11.38V2.678H10.041a.669.669,0,0,0-.669.669V6.078a5.141,5.141,0,0,0-.857.616H5.355a.669.669,0,0,0-.669-.669H.669A.669.669,0,0,0,0,6.694v8.033a.669.669,0,0,0,.669.669H4.686a.669.669,0,0,0,.669-.669H8.515a5.288,5.288,0,0,0,3.534,1.339,5.355,5.355,0,0,0,4.177-2.008ZM10.71,4.016h2.678V5.529a5.6,5.6,0,0,0-1.339-.174,5.281,5.281,0,0,0-1.339.174ZM1.339,14.057V7.363H4.016v6.694Zm14-1.051a4.016,4.016,0,0,1-6.1.576.669.669,0,0,0-.469-.194H5.355V8.033H8.776a.669.669,0,0,0,.469-.194,4.016,4.016,0,0,1,6.1.576.669.669,0,0,0,.549.288,6.875,6.875,0,0,1,6.868,6.868v.5H19.412a3.347,3.347,0,0,0-3.347-3.347h-.174A.669.669,0,0,0,15.342,13.006Z"/><path class="a" d="M28.947,27.234c-.268.315-2.617,3.113-2.617,5.355a3.126,3.126,0,0,0,6.252,0c0-2.229-2.35-5.027-2.617-5.355a.669.669,0,0,0-1.017,0Zm.509,7.129a1.794,1.794,0,0,1-1.787-1.787c0-1.158,1.038-2.818,1.787-3.829.75,1.011,1.787,2.678,1.787,3.829A1.794,1.794,0,0,1,29.456,34.363Z" transform="translate(-8.705 -8.927)"/></svg>