<svg xmlns="http://www.w3.org/2000/svg" xmlns:xlink="http://www.w3.org/1999/xlink" width="42.684" height="50.581" viewBox="0 0 42.684 50.581"><defs><style>.a{fill:url(#a);}</style><linearGradient id="a" x1="0.5" x2="0.5" y2="1" gradientUnits="objectBoundingBox"><stop offset="0" stop-color="#8f938f"/><stop offset="1" stop-color="#b3b6b3"/></linearGradient></defs><path class="a" d="M34.113,40H27.79a.79.79,0,1,0,0,1.581h6.323a.79.79,0,0,0,0-1.581Z" transform="translate(-9.61 -8.387)"/><path class="a" d="M34.113,44H27.79a.79.79,0,1,0,0,1.581h6.323a.79.79,0,0,0,0-1.581Z" transform="translate(-9.61 -9.226)"/><ellipse class="a" cx="1.185" cy="1.581" rx="1.185" ry="1.581" transform="translate(14.229 21.339)"/><ellipse class="a" cx="1.185" cy="1.581" rx="1.185" ry="1.581" transform="translate(26.084 21.339)"/><path class="a" d="M47.629,49.514a10.59,10.59,0,0,0-9.863-6.836h-5.9V39.1a13.435,13.435,0,0,0,7.8-10.646h.893a3.952,3.952,0,0,0,2.371-7.113V12.645a6.275,6.275,0,0,0-.79-3.09,10.164,10.164,0,0,0,.79-4.023A5.532,5.532,0,0,0,37.4,0H23.177a8.749,8.749,0,0,0-6.718,3.161,7.113,7.113,0,0,0-6.718,7.113V21.339a3.952,3.952,0,0,0,2.371,7.113h.893a13.435,13.435,0,0,0,7.8,10.646v3.58h-5.9a10.59,10.59,0,0,0-9.863,6.836.793.793,0,0,0,1.486.553,8.986,8.986,0,0,1,8.377-5.809H17.7c.482,3.549,4.173,6.323,8.638,6.323s8.156-2.774,8.638-6.323h2.79a8.986,8.986,0,0,1,8.377,5.809.793.793,0,1,0,1.486-.553ZM26.338,38.726a5.345,5.345,0,0,1-.869-.047c-3.375-.3-7.034-2.276-7.034-4.695,0-3.288.956-6.323,7.9-6.323s7.9,3.035,7.9,6.323c0,2.418-3.659,4.394-7.034,4.695A5.345,5.345,0,0,1,26.338,38.726Zm-11.855-17.8a7.113,7.113,0,0,0,3.161-5.912V14.17a6.512,6.512,0,0,0,4.323,1.636H32.66a10.187,10.187,0,0,0,3.161-.506v.506a6.323,6.323,0,0,0,2.371,4.932V21.2c-.893,2.648-2.94,6.726-4.742,6.726h0c-1.581-1.241-3.952-1.849-7.113-1.849s-5.532.609-7.065,1.849h0c-1.873,0-3.9-4.078-4.742-6.718ZM35.822,33.984A8.33,8.33,0,0,0,34.6,29.242c1.478-.648,2.7-2.371,3.588-4.054v1.683A11.792,11.792,0,0,1,35.822,33.984Zm4.742-7.113h-.79V22.129h.79a2.371,2.371,0,1,1,0,4.742Zm.79-14.226v7.84A4.742,4.742,0,0,1,37.4,15.806v-1.17a10.274,10.274,0,0,0,3.754-3.343A4.545,4.545,0,0,1,41.354,12.645ZM11.322,10.274a5.532,5.532,0,0,1,5.532-5.532.79.79,0,0,0,.632-.316,7.152,7.152,0,0,1,5.69-2.845H37.4a3.952,3.952,0,0,1,3.952,3.952,8.694,8.694,0,0,1-8.694,8.694H21.967a4.908,4.908,0,0,1-4.41-2.727.79.79,0,0,0-1.494.356v3.161a5.532,5.532,0,0,1-4.742,5.477Zm.79,16.6a2.371,2.371,0,1,1,0-4.742h.79v4.742Zm2.371,0V25.235c.877,1.636,2.094,3.375,3.58,4.007a8.37,8.37,0,0,0-1.209,4.742,11.792,11.792,0,0,1-2.371-7.113Zm10.812,13.38c.348,0,.7.055,1.043.055a6.6,6.6,0,0,0,1.043-.055,13.6,13.6,0,0,0,2.908-.537v3.754c0,1.288-1.81,2.371-3.952,2.371s-3.952-1.083-3.952-2.371V39.714a13.6,13.6,0,0,0,2.908.537ZM26.338,49c-3.572,0-6.536-2.063-7.034-4.742h1.581c.5,1.826,2.7,3.161,5.422,3.161s4.924-1.336,5.422-3.161h1.581C32.874,46.937,29.91,49,26.338,49Z" transform="translate(-4.996)"/><path class="a" d="M22.181,25.291a2.173,2.173,0,0,1,3.082,0,.791.791,0,1,0,1.114-1.122,3.77,3.77,0,0,0-5.319,0,.794.794,0,1,0,1.122,1.122Z" transform="translate(-8.315 -4.837)"/><path class="a" d="M37.2,25.291a2.173,2.173,0,0,1,3.082,0,.794.794,0,1,0,1.122-1.122,3.77,3.77,0,0,0-5.319,0A.791.791,0,0,0,37.2,25.291Z" transform="translate(-11.466 -4.837)"/></svg>