<svg xmlns="http://www.w3.org/2000/svg" xmlns:xlink="http://www.w3.org/1999/xlink" width="42.401" height="42.125" viewBox="0 0 42.401 42.125"><defs><style>.a{fill:url(#a);}</style><linearGradient id="a" x1="0.5" x2="0.5" y2="1" gradientUnits="objectBoundingBox"><stop offset="0" stop-color="#8f938f"/><stop offset="1" stop-color="#b3b6b3"/></linearGradient></defs><path class="a" d="M27.61,17.221A8.61,8.61,0,1,0,19,8.61a8.61,8.61,0,0,0,8.61,8.61Zm0-15.9A7.286,7.286,0,1,1,20.325,8.61,7.286,7.286,0,0,1,27.61,1.325Z" transform="translate(-6.408 0)"/><path class="a" d="M24.333,13.319h.086a.662.662,0,0,0,.47-.192l7.286-7.253A.7.7,0,0,0,32,4.854,5.961,5.961,0,0,0,23.837,13,.662.662,0,0,0,24.333,13.319ZM28.97,5.338a4.636,4.636,0,0,1,1.556.272L24.6,11.531A4.636,4.636,0,0,1,28.97,5.338Z" transform="translate(-7.768 -1.364)"/><path class="a" d="M27,15.927a.662.662,0,0,0,.318.484,5.961,5.961,0,0,0,8.127-8.147.662.662,0,0,0-1.04-.132L27.15,15.417A.662.662,0,0,0,27,15.927Zm7.71-6.206a4.636,4.636,0,0,1-5.921,5.921Z" transform="translate(-9.107 -2.68)"/><path class="a" d="M42.194,35.492a.662.662,0,0,0-.941,0l-.536.536A4.729,4.729,0,0,0,39.5,38.2a7.484,7.484,0,0,1-1.927,3.312L30.4,48.7a.775.775,0,0,1-1.027.113.722.722,0,0,1-.272-.536.7.7,0,0,1,.212-.543h0a1.246,1.246,0,0,0,.079-.119l.119-.079,3.146-3.153a.662.662,0,0,0-.934-.934l-3.153,3.166a1.246,1.246,0,0,0-.079.119,1.246,1.246,0,0,0-.119.079h0l-1.119,1.126a.8.8,0,0,1-1.033.119.735.735,0,0,1-.265-.536.715.715,0,0,1,.212-.55h0L30.7,42.44a.662.662,0,0,0-.934-.934l-4.722,4.722h0l-.934.927a.8.8,0,0,1-1.027.113.735.735,0,0,1-.265-.536.715.715,0,0,1,.212-.55L24.2,45h0l4.524-4.524a.663.663,0,1,0-.941-.934L23.264,44.07a.729.729,0,0,1-1.08-.106A.788.788,0,0,1,22.3,42.93l6.842-6.789a5.829,5.829,0,0,0,7.027.04.662.662,0,1,0-.795-1.06,4.5,4.5,0,0,1-5.451-.046l-.437-.338h0a.563.563,0,0,0-.2-.1.166.166,0,0,0-.079,0,.464.464,0,0,0-.093,0L25.3,34.492a1.576,1.576,0,0,1-1.563-1.563.464.464,0,0,1,.132-.318.444.444,0,0,1,.331-.132l5.252-.1a.662.662,0,0,0,.278-.066l.49-.245a4.378,4.378,0,0,1,2.649-.411,5.206,5.206,0,0,0,4.524-1.417l4.8-4.822a.665.665,0,0,0-.941-.941l-4.828,4.828a3.908,3.908,0,0,1-3.385,1.04,5.756,5.756,0,0,0-3.411.536l-.351.172-5.093.1a1.762,1.762,0,0,0-1.775,1.782,2.894,2.894,0,0,0,2.868,2.881h0l2.212.06L21.357,42.01a2.491,2.491,0,0,0-.166.205,2.49,2.49,0,0,0-.166-.205l-6.133-6.133,2.192-.06a2.9,2.9,0,0,0,2.888-2.888,1.8,1.8,0,0,0-.517-1.258,1.775,1.775,0,0,0-1.245-.517h0l-5.107-.1-.344-.166a5.742,5.742,0,0,0-3.418-.543A3.868,3.868,0,0,1,5.957,29.3L1.129,24.471a.667.667,0,1,0-.941.947l4.828,4.828A5.206,5.206,0,0,0,9.54,31.664a4.358,4.358,0,0,1,2.649.417l.484.238a.662.662,0,0,0,.278.066l5.3.1a.431.431,0,0,1,.311.126.464.464,0,0,1,.139.318,1.583,1.583,0,0,1-1.583,1.57l-3.749.106a.662.662,0,0,0-.45,1.133l7.219,7.219a.8.8,0,0,1,.066,1.007.735.735,0,0,1-.536.265.722.722,0,0,1-.55-.212l-4.55-4.5a.663.663,0,0,0-.941.934l4.524,4.524h0l1.179,1.179a.729.729,0,0,1-.053,1.08.782.782,0,0,1-1.027-.106l-.934-.927h0l-4.722-4.722a.662.662,0,1,0-.934.934l4.524,4.53h0a.729.729,0,0,1-.053,1.08.788.788,0,0,1-1.007-.079L14,46.818h0a1.245,1.245,0,0,0-.119-.079,1.245,1.245,0,0,0-.079-.119l-3.153-3.146a.662.662,0,1,0-.934.934l3.146,3.153.119.079a1.245,1.245,0,0,0,.079.119h0a.7.7,0,0,1,.212.543.715.715,0,0,1-.265.53.782.782,0,0,1-1.033-.106L4.8,41.526a7.484,7.484,0,0,1-1.927-3.312,4.729,4.729,0,0,0-1.212-2.2l-.536-.536a.67.67,0,0,0-.941.954l.536.536a3.53,3.53,0,0,1,.881,1.576,8.783,8.783,0,0,0,2.259,3.921l7.173,7.173a2.2,2.2,0,0,0,1.537.662,2.02,2.02,0,0,0,1.278-.45,2.1,2.1,0,0,0,.576-.768,2.113,2.113,0,0,0,2.563,0,2.053,2.053,0,0,0,.589-.775,2.1,2.1,0,0,0,2.557,0,2.04,2.04,0,0,0,.755-1.484,2.1,2.1,0,0,0-.431-1.378,2.02,2.02,0,0,0,.729-.55,2.02,2.02,0,0,0,.729.55,2.1,2.1,0,0,0-.431,1.378,2.066,2.066,0,0,0,.755,1.49,2.106,2.106,0,0,0,2.557,0,2.04,2.04,0,0,0,3.153.788,2.066,2.066,0,0,0,.583.775,2.02,2.02,0,0,0,1.272.444,2.2,2.2,0,0,0,1.537-.662l7.173-7.193a8.783,8.783,0,0,0,2.259-3.921,3.53,3.53,0,0,1,.881-1.576l.536-.536a.662.662,0,0,0,0-.941Z" transform="translate(0.011 -8.198)"/></svg>