<svg xmlns="http://www.w3.org/2000/svg" xmlns:xlink="http://www.w3.org/1999/xlink" width="43.192" height="43.195" viewBox="0 0 43.192 43.195"><defs><style>.a{fill:url(#a);}</style><linearGradient id="a" x1="0.5" x2="0.5" y2="1" gradientUnits="objectBoundingBox"><stop offset="0" stop-color="#8f938f"/><stop offset="1" stop-color="#b3b6b3"/></linearGradient></defs><path class="a" d="M31.675,29a.675.675,0,0,0-.675.675v1.35a.675.675,0,1,0,1.35,0v-1.35A.675.675,0,0,0,31.675,29Z" transform="translate(-10.079 -9.426)"/><path class="a" d="M31.675,23a.675.675,0,0,0-.675.675v1.35a.675.675,0,1,0,1.35,0v-1.35A.675.675,0,0,0,31.675,23Z" transform="translate(-10.079 -7.475)"/><path class="a" d="M31.675,35a.675.675,0,0,0-.675.675v1.35a.675.675,0,1,0,1.35,0v-1.35A.675.675,0,0,0,31.675,35Z" transform="translate(-10.079 -11.376)"/><path class="a" d="M31.675,41a.675.675,0,0,0-.675.675v1.35a.675.675,0,0,0,1.35,0v-1.35A.675.675,0,0,0,31.675,41Z" transform="translate(-10.079 -13.327)"/><path class="a" d="M31.675,47a.675.675,0,0,0-.675.675v1.35a.675.675,0,0,0,1.35,0v-1.35A.675.675,0,0,0,31.675,47Z" transform="translate(-10.079 -15.278)"/><path class="a" d="M31.675,53a.675.675,0,0,0-.675.675v1.35a.675.675,0,0,0,1.35,0v-1.35A.675.675,0,0,0,31.675,53Z" transform="translate(-10.079 -17.228)"/><path class="a" d="M31.675,59a.675.675,0,0,0-.675.675v1.35a.675.675,0,0,0,1.35,0v-1.35A.675.675,0,0,0,31.675,59Z" transform="translate(-10.079 -19.179)"/><path class="a" d="M39.749,15.049V13.025a2.016,2.016,0,0,0-3.374-1.5A2.016,2.016,0,0,0,33,13.025v2.025a.675.675,0,1,0,1.35,0V13.025a.675.675,0,0,1,1.35,0v2.025a.675.675,0,1,0,1.35,0V13.025a.675.675,0,0,1,1.35,0v2.025a.675.675,0,1,0,1.35,0Z" transform="translate(-10.729 -3.574)"/><path class="a" d="M28.049,13.4H25.532a1.35,1.35,0,0,1,.675-.547l1.107-.445A2.288,2.288,0,0,0,26.436,8h-.412A2.025,2.025,0,0,0,24,10.025a.675.675,0,0,0,1.35,0,.675.675,0,0,1,.675-.675h.412a.931.931,0,0,1,.351,1.8L25.68,11.6A2.652,2.652,0,0,0,24,14.074a.675.675,0,0,0,.675.675h3.374a.675.675,0,1,0,0-1.35Z" transform="translate(-7.803 -2.598)"/><path class="a" d="M10.056,2.955a.675.675,0,0,0,.142.223L12.222,5.2a.678.678,0,1,0,.958-.958L12.3,3.373H37.4l-.877.871a.678.678,0,1,0,.958.958L39.5,3.177a.7.7,0,0,0,0-.958L37.476.194a.678.678,0,0,0-.958.958l.877.871H12.3l.877-.871a.678.678,0,1,0-.958-.958L10.2,2.219a.7.7,0,0,0-.142.736Z" transform="translate(-3.253 0.004)"/><path class="a" d="M10.42,20.773a4,4,0,0,0,1.053-2.7V16.049a4.049,4.049,0,1,0-8.1,0v2.025a4,4,0,0,0,1.053,2.7A4.724,4.724,0,0,0,0,25.5v8.1a2.025,2.025,0,0,0,2.025,2.025A1.9,1.9,0,0,0,2.7,35.5v8.49a2.841,2.841,0,0,0-1.35,2.43.675.675,0,0,0,.675.675H6.749a.675.675,0,0,0,.675-.675h0a.675.675,0,0,0,.675.675h4.724a.675.675,0,0,0,.675-.675,2.814,2.814,0,0,0-1.35-2.43V35.5a1.9,1.9,0,0,0,.675.121A2.025,2.025,0,0,0,14.847,33.6V25.5A4.724,4.724,0,0,0,10.42,20.773Zm-5.7-4.724a2.7,2.7,0,1,1,5.4,0v2.025a2.7,2.7,0,1,1-5.4,0ZM13.5,33.6a.668.668,0,0,1-.931.621h-.054a.675.675,0,0,1-.364-.621V24.823a.675.675,0,0,0-1.35,0V44.394a.675.675,0,0,0,.364.6l.155.081a1.5,1.5,0,0,1,.675.675H8.773L8.1,33.6a.675.675,0,1,0-1.35,0L6.108,45.744H2.855a1.518,1.518,0,0,1,.675-.675l.142-.074a.675.675,0,0,0,.378-.6V24.823a.675.675,0,0,0-1.35,0V33.6a.675.675,0,0,1-.364.594H2.281a.675.675,0,0,1-.256.081A.675.675,0,0,1,1.35,33.6V25.5a3.374,3.374,0,0,1,3.374-3.374h5.4A3.374,3.374,0,0,1,13.5,25.5Z" transform="translate(0 -3.899)"/><path class="a" d="M52.42,20.773a4,4,0,0,0,1.053-2.7V16.049a4.049,4.049,0,1,0-8.1,0v2.025a4,4,0,0,0,1.053,2.7A4.724,4.724,0,0,0,42,25.5v8.1a2.025,2.025,0,0,0,2.025,2.025A1.9,1.9,0,0,0,44.7,35.5v8.49a2.841,2.841,0,0,0-1.35,2.43.675.675,0,0,0,.675.675h4.724a.675.675,0,0,0,.675-.675h0a.675.675,0,0,0,.675.675h4.724a.675.675,0,0,0,.675-.675,2.814,2.814,0,0,0-1.35-2.43V35.5a1.9,1.9,0,0,0,.675.121A2.025,2.025,0,0,0,56.847,33.6V25.5A4.724,4.724,0,0,0,52.42,20.773Zm-5.7-4.724a2.7,2.7,0,1,1,5.4,0v2.025a2.7,2.7,0,1,1-5.4,0ZM55.5,33.6a.668.668,0,0,1-.931.621h-.054a.675.675,0,0,1-.364-.621V24.823a.675.675,0,0,0-1.35,0V44.394a.675.675,0,0,0,.364.6l.155.081a1.5,1.5,0,0,1,.675.675H50.773L50.1,33.6a.675.675,0,1,0-1.35,0l-.675,12.148H44.855a1.519,1.519,0,0,1,.675-.675l.142-.074a.675.675,0,0,0,.378-.6V24.823a.675.675,0,0,0-1.35,0V33.6a.675.675,0,0,1-.364.594h-.054a.622.622,0,0,1-.931-.594V25.5a3.374,3.374,0,0,1,3.374-3.374h5.4A3.374,3.374,0,0,1,55.5,25.5Z" transform="translate(-13.655 -3.899)"/></svg>